<?xml version="1.0" standalone="no"?>
<!DOCTYPE svg PUBLIC "-//W3C//DTD SVG 20010904//EN"
 "http://www.w3.org/TR/2001/REC-SVG-20010904/DTD/svg10.dtd">
<svg version="1.0" xmlns="http://www.w3.org/2000/svg"
 width="512.000000pt" height="512.000000pt" viewBox="0 0 512.000000 512.000000"
 preserveAspectRatio="xMidYMid meet">
<metadata>
Created by potrace 1.11, written by Peter Selinger 2001-2013
</metadata>
<g transform="translate(0.000000,512.000000) scale(0.100000,-0.100000)"
fill="#000000" stroke="none">
<path d="M377 5105 c-173 -47 -316 -193 -362 -366 -22 -81 -22 -4277 0 -4358
46 -176 190 -320 366 -366 81 -22 4277 -22 4358 0 176 46 320 190 366 366 22
81 22 4277 0 4358 -46 176 -190 320 -366 366 -77 21 -4287 21 -4362 0z m1963
-2535 l0 -900 -94 0 -94 0 -7 70 -7 71 -48 -45 c-65 -61 -136 -95 -230 -108
-260 -38 -468 115 -552 407 -19 69 -23 103 -23 240 0 178 17 260 77 382 93
190 285 293 492 264 94 -13 164 -44 230 -102 l46 -41 0 331 0 331 105 0 105 0
0 -900z m1092 93 l3 -808 208 -3 207 -2 0 -90 0 -90 -530 0 -530 0 0 90 0 90
218 2 217 3 0 715 0 715 -217 3 -218 2 0 90 0 90 320 0 320 0 2 -807z"/>
<path d="M1732 2766 c-45 -15 -105 -55 -135 -90 -65 -77 -107 -223 -107 -373
1 -291 115 -459 320 -471 106 -6 173 15 239 74 83 75 81 63 81 402 l0 299 -29
40 c-32 44 -76 80 -130 108 -47 23 -182 30 -239 11z"/>
</g>
</svg>
