<svg width="72" height="72" viewBox="0 0 72 72" fill="none" xmlns="http://www.w3.org/2000/svg">
<path d="M66 37.62C60.588 36.585 57.897 34.38 55.431 28.8C53.97 30.888 52.125 33.504 52.671 36C52.755 36.714 51.711 39 51 39H9C9 54.624 18.492 60 27.588 60C39.96 60.066 51.072 55.872 57.15 45C60.588 44.697 64.038 40.485 66 37.62Z" stroke="#8719E0" stroke-width="6" stroke-linecap="round" stroke-linejoin="round"/>
<path d="M15 30H24V39H15V30Z" stroke="#8719E0" stroke-width="6" stroke-linecap="round" stroke-linejoin="round"/>
<path d="M24 30H33V39H24V30Z" stroke="#8719E0" stroke-width="6" stroke-linecap="round" stroke-linejoin="round"/>
<path d="M33 30H42V39H33V30Z" stroke="#8719E0" stroke-width="6" stroke-linecap="round" stroke-linejoin="round"/>
<path d="M24 21H33V30H24V21Z" stroke="#8719E0" stroke-width="6" stroke-linecap="round" stroke-linejoin="round"/>
<path d="M33 21H42V30H33V21Z" stroke="#8719E0" stroke-width="6" stroke-linecap="round" stroke-linejoin="round"/>
<path d="M33 12H42V21H33V12Z" stroke="#8719E0" stroke-width="6" stroke-linecap="round" stroke-linejoin="round"/>
<path d="M13.713 54C18.213 54 19.854 53.778 22.587 51.66" stroke="#8719E0" stroke-width="6" stroke-linecap="round" stroke-linejoin="round"/>
<path d="M30 48V48.03" stroke="#8719E0" stroke-width="6" stroke-linecap="round" stroke-linejoin="round"/>
</svg>
