<svg width="72" height="72" viewBox="0 0 72 72" fill="none" xmlns="http://www.w3.org/2000/svg">
<path d="M24 27L33 36L24 45" stroke="#8719E0" stroke-width="6" stroke-linecap="round" stroke-linejoin="round"/>
<path d="M39.0001 45H48.0001" stroke="#8719E0" stroke-width="6" stroke-linecap="round" stroke-linejoin="round"/>
<path d="M9.00006 18C9.00006 16.4087 9.6322 14.8826 10.7574 13.7574C11.8826 12.6321 13.4088 12 15.0001 12H57.0001C58.5914 12 60.1175 12.6321 61.2427 13.7574C62.3679 14.8826 63.0001 16.4087 63.0001 18V54C63.0001 55.5913 62.3679 57.1174 61.2427 58.2426C60.1175 59.3679 58.5914 60 57.0001 60H15.0001C13.4088 60 11.8826 59.3679 10.7574 58.2426C9.6322 57.1174 9.00006 55.5913 9.00006 54V18Z" stroke="#8719E0" stroke-width="6" stroke-linecap="round" stroke-linejoin="round"/>
</svg>
